<mxfile host="app.diagrams.net" modified="2022-10-31T04:10:52.075Z" agent="5.0 (Windows NT 10.0; Win64; x64) AppleWebKit/537.36 (KHTML, like Gecko) Chrome/107.0.0.0 Safari/537.36 Edg/107.0.1418.24" etag="AyKXbRZ9GJeRdebnhz_m" version="20.5.1" type="github">
  <diagram id="kySrjobcRyFkL0hatLoN" name="第 1 页">
    <mxGraphModel dx="1827" dy="600" grid="0" gridSize="10" guides="1" tooltips="1" connect="1" arrows="1" fold="1" page="1" pageScale="1" pageWidth="827" pageHeight="1169" math="0" shadow="0">
      <root>
        <mxCell id="0" />
        <mxCell id="1" parent="0" />
        <mxCell id="QMrwEV2rDX-M7GrpwGeN-3" value="" style="edgeStyle=orthogonalEdgeStyle;rounded=0;orthogonalLoop=1;jettySize=auto;html=1;" edge="1" parent="1" source="QMrwEV2rDX-M7GrpwGeN-1" target="QMrwEV2rDX-M7GrpwGeN-2">
          <mxGeometry relative="1" as="geometry" />
        </mxCell>
        <mxCell id="QMrwEV2rDX-M7GrpwGeN-1" value="员工" style="ellipse;whiteSpace=wrap;html=1;aspect=fixed;" vertex="1" parent="1">
          <mxGeometry x="-805" y="286" width="59" height="59" as="geometry" />
        </mxCell>
        <mxCell id="QMrwEV2rDX-M7GrpwGeN-7" value="" style="edgeStyle=orthogonalEdgeStyle;rounded=0;orthogonalLoop=1;jettySize=auto;html=1;" edge="1" parent="1" source="QMrwEV2rDX-M7GrpwGeN-2" target="QMrwEV2rDX-M7GrpwGeN-6">
          <mxGeometry relative="1" as="geometry" />
        </mxCell>
        <mxCell id="QMrwEV2rDX-M7GrpwGeN-2" value="提交" style="whiteSpace=wrap;html=1;" vertex="1" parent="1">
          <mxGeometry x="-696.5" y="285.5" width="93.5" height="60.5" as="geometry" />
        </mxCell>
        <mxCell id="QMrwEV2rDX-M7GrpwGeN-5" value="" style="edgeStyle=orthogonalEdgeStyle;rounded=0;orthogonalLoop=1;jettySize=auto;html=1;" edge="1" parent="1" source="QMrwEV2rDX-M7GrpwGeN-4" target="QMrwEV2rDX-M7GrpwGeN-2">
          <mxGeometry relative="1" as="geometry" />
        </mxCell>
        <mxCell id="QMrwEV2rDX-M7GrpwGeN-4" value="原料提货单" style="shape=document;whiteSpace=wrap;html=1;boundedLbl=1;gradientColor=none;" vertex="1" parent="1">
          <mxGeometry x="-691.75" y="182" width="84" height="56" as="geometry" />
        </mxCell>
        <mxCell id="QMrwEV2rDX-M7GrpwGeN-9" value="" style="edgeStyle=orthogonalEdgeStyle;rounded=0;orthogonalLoop=1;jettySize=auto;html=1;" edge="1" parent="1" source="QMrwEV2rDX-M7GrpwGeN-6" target="QMrwEV2rDX-M7GrpwGeN-8">
          <mxGeometry relative="1" as="geometry" />
        </mxCell>
        <mxCell id="QMrwEV2rDX-M7GrpwGeN-6" value="仓库主任" style="ellipse;whiteSpace=wrap;html=1;" vertex="1" parent="1">
          <mxGeometry x="-536.25" y="285.75" width="61.25" height="61.25" as="geometry" />
        </mxCell>
        <mxCell id="QMrwEV2rDX-M7GrpwGeN-15" value="" style="edgeStyle=orthogonalEdgeStyle;rounded=0;orthogonalLoop=1;jettySize=auto;html=1;" edge="1" parent="1" source="QMrwEV2rDX-M7GrpwGeN-8" target="QMrwEV2rDX-M7GrpwGeN-14">
          <mxGeometry relative="1" as="geometry" />
        </mxCell>
        <mxCell id="QMrwEV2rDX-M7GrpwGeN-8" value="仓库提货单" style="whiteSpace=wrap;html=1;" vertex="1" parent="1">
          <mxGeometry x="-424.37" y="286.38" width="96.38" height="60.63" as="geometry" />
        </mxCell>
        <mxCell id="QMrwEV2rDX-M7GrpwGeN-11" value="" style="edgeStyle=orthogonalEdgeStyle;rounded=0;orthogonalLoop=1;jettySize=auto;html=1;" edge="1" parent="1" source="QMrwEV2rDX-M7GrpwGeN-10" target="QMrwEV2rDX-M7GrpwGeN-8">
          <mxGeometry relative="1" as="geometry" />
        </mxCell>
        <mxCell id="QMrwEV2rDX-M7GrpwGeN-10" value="用料计划和库存情况" style="shape=document;whiteSpace=wrap;html=1;boundedLbl=1;gradientColor=none;" vertex="1" parent="1">
          <mxGeometry x="-418.18" y="177" width="84" height="56" as="geometry" />
        </mxCell>
        <mxCell id="QMrwEV2rDX-M7GrpwGeN-17" value="" style="edgeStyle=orthogonalEdgeStyle;rounded=0;orthogonalLoop=1;jettySize=auto;html=1;" edge="1" parent="1" source="QMrwEV2rDX-M7GrpwGeN-14" target="QMrwEV2rDX-M7GrpwGeN-16">
          <mxGeometry relative="1" as="geometry" />
        </mxCell>
        <mxCell id="QMrwEV2rDX-M7GrpwGeN-14" value="合格提货单" style="shape=document;whiteSpace=wrap;html=1;boundedLbl=1;" vertex="1" parent="1">
          <mxGeometry x="-274" y="287.65" width="85" height="58.1" as="geometry" />
        </mxCell>
        <mxCell id="QMrwEV2rDX-M7GrpwGeN-19" value="" style="edgeStyle=orthogonalEdgeStyle;rounded=0;orthogonalLoop=1;jettySize=auto;html=1;" edge="1" parent="1" source="QMrwEV2rDX-M7GrpwGeN-16" target="QMrwEV2rDX-M7GrpwGeN-18">
          <mxGeometry relative="1" as="geometry" />
        </mxCell>
        <mxCell id="QMrwEV2rDX-M7GrpwGeN-16" value="库管理员" style="ellipse;whiteSpace=wrap;html=1;aspect=fixed;gradientColor=none;" vertex="1" parent="1">
          <mxGeometry x="-146" y="286.38" width="62.5" height="62.5" as="geometry" />
        </mxCell>
        <mxCell id="QMrwEV2rDX-M7GrpwGeN-21" value="" style="edgeStyle=orthogonalEdgeStyle;rounded=0;orthogonalLoop=1;jettySize=auto;html=1;" edge="1" parent="1" source="QMrwEV2rDX-M7GrpwGeN-18" target="QMrwEV2rDX-M7GrpwGeN-20">
          <mxGeometry relative="1" as="geometry" />
        </mxCell>
        <mxCell id="QMrwEV2rDX-M7GrpwGeN-23" value="" style="edgeStyle=orthogonalEdgeStyle;rounded=0;orthogonalLoop=1;jettySize=auto;html=1;" edge="1" parent="1" source="QMrwEV2rDX-M7GrpwGeN-18" target="QMrwEV2rDX-M7GrpwGeN-22">
          <mxGeometry relative="1" as="geometry" />
        </mxCell>
        <mxCell id="QMrwEV2rDX-M7GrpwGeN-18" value="更新、修改" style="whiteSpace=wrap;html=1;gradientColor=none;" vertex="1" parent="1">
          <mxGeometry x="-32.25" y="287.63" width="99.25" height="60.37" as="geometry" />
        </mxCell>
        <mxCell id="QMrwEV2rDX-M7GrpwGeN-20" value="库存台账" style="shape=document;whiteSpace=wrap;html=1;boundedLbl=1;gradientColor=none;" vertex="1" parent="1">
          <mxGeometry x="-37.15" y="179.78" width="109.06" height="50.44" as="geometry" />
        </mxCell>
        <mxCell id="QMrwEV2rDX-M7GrpwGeN-22" value="流水账" style="shape=document;whiteSpace=wrap;html=1;boundedLbl=1;gradientColor=none;" vertex="1" parent="1">
          <mxGeometry x="-41.32" y="420" width="117.38" height="56.82" as="geometry" />
        </mxCell>
        <mxCell id="QMrwEV2rDX-M7GrpwGeN-24" value="合格" style="text;html=1;strokeColor=none;fillColor=none;align=center;verticalAlign=middle;whiteSpace=wrap;rounded=0;" vertex="1" parent="1">
          <mxGeometry x="-332" y="285.5" width="60" height="30" as="geometry" />
        </mxCell>
        <mxCell id="QMrwEV2rDX-M7GrpwGeN-27" value="" style="strokeWidth=2;html=1;shape=mxgraph.flowchart.annotation_1;align=left;pointerEvents=1;gradientColor=none;rotation=-90;" vertex="1" parent="1">
          <mxGeometry x="-594" y="163" width="50" height="417" as="geometry" />
        </mxCell>
        <mxCell id="QMrwEV2rDX-M7GrpwGeN-28" value="不合格提货单" style="shape=document;whiteSpace=wrap;html=1;boundedLbl=1;gradientColor=none;" vertex="1" parent="1">
          <mxGeometry x="-696.5" y="378" width="84" height="56" as="geometry" />
        </mxCell>
        <mxCell id="QMrwEV2rDX-M7GrpwGeN-29" value="不合格" style="text;html=1;strokeColor=none;fillColor=none;align=center;verticalAlign=middle;whiteSpace=wrap;rounded=0;" vertex="1" parent="1">
          <mxGeometry x="-533" y="372" width="60" height="30" as="geometry" />
        </mxCell>
        <mxCell id="QMrwEV2rDX-M7GrpwGeN-30" value="员工" style="rounded=0;whiteSpace=wrap;html=1;fillColor=#f5f5f5;fontColor=#333333;strokeColor=#666666;" vertex="1" parent="1">
          <mxGeometry x="-741" y="700" width="120" height="60" as="geometry" />
        </mxCell>
        <mxCell id="QMrwEV2rDX-M7GrpwGeN-32" value="" style="endArrow=none;html=1;rounded=0;fillColor=#f5f5f5;strokeColor=#666666;" edge="1" parent="1">
          <mxGeometry width="50" height="50" relative="1" as="geometry">
            <mxPoint x="-748" y="694" as="sourcePoint" />
            <mxPoint x="-665" y="694" as="targetPoint" />
          </mxGeometry>
        </mxCell>
        <mxCell id="QMrwEV2rDX-M7GrpwGeN-33" value="" style="endArrow=none;html=1;rounded=0;fillColor=#f5f5f5;strokeColor=#666666;" edge="1" parent="1">
          <mxGeometry width="50" height="50" relative="1" as="geometry">
            <mxPoint x="-748" y="740" as="sourcePoint" />
            <mxPoint x="-748" y="694" as="targetPoint" />
          </mxGeometry>
        </mxCell>
        <mxCell id="QMrwEV2rDX-M7GrpwGeN-35" value="" style="endArrow=classic;html=1;rounded=0;" edge="1" parent="1">
          <mxGeometry width="50" height="50" relative="1" as="geometry">
            <mxPoint x="-607.75" y="718" as="sourcePoint" />
            <mxPoint x="-542" y="718" as="targetPoint" />
          </mxGeometry>
        </mxCell>
        <mxCell id="QMrwEV2rDX-M7GrpwGeN-38" value="审核员提货单" style="rounded=0;whiteSpace=wrap;html=1;fillColor=#f5f5f5;fontColor=#333333;strokeColor=#666666;" vertex="1" parent="1">
          <mxGeometry x="-529" y="639" width="93" height="162" as="geometry" />
        </mxCell>
        <mxCell id="QMrwEV2rDX-M7GrpwGeN-39" value="" style="endArrow=none;html=1;rounded=0;entryX=1;entryY=0.25;entryDx=0;entryDy=0;exitX=0;exitY=0.25;exitDx=0;exitDy=0;fillColor=#f5f5f5;strokeColor=#666666;" edge="1" parent="1" source="QMrwEV2rDX-M7GrpwGeN-38" target="QMrwEV2rDX-M7GrpwGeN-38">
          <mxGeometry width="50" height="50" relative="1" as="geometry">
            <mxPoint x="-529" y="683" as="sourcePoint" />
            <mxPoint x="-479" y="633" as="targetPoint" />
          </mxGeometry>
        </mxCell>
        <mxCell id="QMrwEV2rDX-M7GrpwGeN-40" value="P1" style="text;html=1;strokeColor=none;fillColor=none;align=center;verticalAlign=middle;whiteSpace=wrap;rounded=0;" vertex="1" parent="1">
          <mxGeometry x="-515" y="644" width="60" height="30" as="geometry" />
        </mxCell>
        <mxCell id="QMrwEV2rDX-M7GrpwGeN-42" value="处理" style="rounded=0;whiteSpace=wrap;html=1;fillColor=#f5f5f5;fontColor=#333333;strokeColor=#666666;" vertex="1" parent="1">
          <mxGeometry x="-332" y="639" width="93" height="162" as="geometry" />
        </mxCell>
        <mxCell id="QMrwEV2rDX-M7GrpwGeN-43" value="" style="endArrow=none;html=1;rounded=0;entryX=1;entryY=0.25;entryDx=0;entryDy=0;exitX=0;exitY=0.25;exitDx=0;exitDy=0;fillColor=#f5f5f5;strokeColor=#666666;" edge="1" parent="1" source="QMrwEV2rDX-M7GrpwGeN-42" target="QMrwEV2rDX-M7GrpwGeN-42">
          <mxGeometry width="50" height="50" relative="1" as="geometry">
            <mxPoint x="-332" y="683" as="sourcePoint" />
            <mxPoint x="-282" y="633" as="targetPoint" />
          </mxGeometry>
        </mxCell>
        <mxCell id="QMrwEV2rDX-M7GrpwGeN-44" value="P2" style="text;html=1;strokeColor=none;fillColor=none;align=center;verticalAlign=middle;whiteSpace=wrap;rounded=0;" vertex="1" parent="1">
          <mxGeometry x="-318" y="644" width="60" height="30" as="geometry" />
        </mxCell>
        <mxCell id="QMrwEV2rDX-M7GrpwGeN-45" value="" style="endArrow=classic;html=1;rounded=0;" edge="1" parent="1">
          <mxGeometry width="50" height="50" relative="1" as="geometry">
            <mxPoint x="-413" y="719.5" as="sourcePoint" />
            <mxPoint x="-347.25" y="719.5" as="targetPoint" />
          </mxGeometry>
        </mxCell>
        <mxCell id="QMrwEV2rDX-M7GrpwGeN-46" value="" style="endArrow=classic;html=1;rounded=0;" edge="1" parent="1">
          <mxGeometry width="50" height="50" relative="1" as="geometry">
            <mxPoint x="-544" y="745" as="sourcePoint" />
            <mxPoint x="-607.75" y="745" as="targetPoint" />
          </mxGeometry>
        </mxCell>
        <mxCell id="QMrwEV2rDX-M7GrpwGeN-47" value="不合格" style="text;html=1;strokeColor=none;fillColor=none;align=center;verticalAlign=middle;whiteSpace=wrap;rounded=0;" vertex="1" parent="1">
          <mxGeometry x="-607.75" y="744" width="60" height="30" as="geometry" />
        </mxCell>
        <mxCell id="QMrwEV2rDX-M7GrpwGeN-48" value="合格" style="text;html=1;strokeColor=none;fillColor=none;align=center;verticalAlign=middle;whiteSpace=wrap;rounded=0;" vertex="1" parent="1">
          <mxGeometry x="-411" y="680" width="60" height="30" as="geometry" />
        </mxCell>
        <mxCell id="QMrwEV2rDX-M7GrpwGeN-50" value="" style="endArrow=classic;html=1;rounded=0;" edge="1" parent="1">
          <mxGeometry width="50" height="50" relative="1" as="geometry">
            <mxPoint x="-486" y="639" as="sourcePoint" />
            <mxPoint x="-486" y="589" as="targetPoint" />
          </mxGeometry>
        </mxCell>
        <mxCell id="QMrwEV2rDX-M7GrpwGeN-51" value="D1" style="strokeWidth=2;html=1;shape=mxgraph.flowchart.annotation_1;align=left;pointerEvents=1;fillColor=#f5f5f5;fontColor=#333333;strokeColor=#666666;" vertex="1" parent="1">
          <mxGeometry x="-557" y="513.4" width="144" height="70" as="geometry" />
        </mxCell>
        <mxCell id="QMrwEV2rDX-M7GrpwGeN-53" value="" style="endArrow=none;html=1;rounded=0;entryX=0.247;entryY=-0.02;entryDx=0;entryDy=0;entryPerimeter=0;exitX=0.247;exitY=1.02;exitDx=0;exitDy=0;exitPerimeter=0;" edge="1" parent="1" source="QMrwEV2rDX-M7GrpwGeN-51" target="QMrwEV2rDX-M7GrpwGeN-51">
          <mxGeometry width="50" height="50" relative="1" as="geometry">
            <mxPoint x="-530" y="583.4" as="sourcePoint" />
            <mxPoint x="-480" y="533.4" as="targetPoint" />
          </mxGeometry>
        </mxCell>
        <mxCell id="QMrwEV2rDX-M7GrpwGeN-54" value="库存台账" style="text;html=1;strokeColor=none;fillColor=none;align=center;verticalAlign=middle;whiteSpace=wrap;rounded=0;" vertex="1" parent="1">
          <mxGeometry x="-508" y="533.4" width="60" height="30" as="geometry" />
        </mxCell>
        <mxCell id="QMrwEV2rDX-M7GrpwGeN-55" value="D3" style="strokeWidth=2;html=1;shape=mxgraph.flowchart.annotation_1;align=left;pointerEvents=1;fillColor=#f5f5f5;fontColor=#333333;strokeColor=#666666;" vertex="1" parent="1">
          <mxGeometry x="-183" y="602.6" width="144" height="70" as="geometry" />
        </mxCell>
        <mxCell id="QMrwEV2rDX-M7GrpwGeN-56" value="" style="endArrow=none;html=1;rounded=0;entryX=0.247;entryY=-0.02;entryDx=0;entryDy=0;entryPerimeter=0;exitX=0.247;exitY=1.02;exitDx=0;exitDy=0;exitPerimeter=0;" edge="1" parent="1" source="QMrwEV2rDX-M7GrpwGeN-55" target="QMrwEV2rDX-M7GrpwGeN-55">
          <mxGeometry width="50" height="50" relative="1" as="geometry">
            <mxPoint x="-156" y="672.6" as="sourcePoint" />
            <mxPoint x="-106" y="622.6" as="targetPoint" />
          </mxGeometry>
        </mxCell>
        <mxCell id="QMrwEV2rDX-M7GrpwGeN-57" value="库存台账" style="text;html=1;strokeColor=none;fillColor=none;align=center;verticalAlign=middle;whiteSpace=wrap;rounded=0;" vertex="1" parent="1">
          <mxGeometry x="-134" y="622.6" width="60" height="30" as="geometry" />
        </mxCell>
        <mxCell id="QMrwEV2rDX-M7GrpwGeN-58" value="D4" style="strokeWidth=2;html=1;shape=mxgraph.flowchart.annotation_1;align=left;pointerEvents=1;fillColor=#f5f5f5;fontColor=#333333;strokeColor=#666666;" vertex="1" parent="1">
          <mxGeometry x="-176.25" y="754.4" width="144" height="70" as="geometry" />
        </mxCell>
        <mxCell id="QMrwEV2rDX-M7GrpwGeN-59" value="" style="endArrow=none;html=1;rounded=0;entryX=0.247;entryY=-0.02;entryDx=0;entryDy=0;entryPerimeter=0;exitX=0.247;exitY=1.02;exitDx=0;exitDy=0;exitPerimeter=0;" edge="1" parent="1" source="QMrwEV2rDX-M7GrpwGeN-58" target="QMrwEV2rDX-M7GrpwGeN-58">
          <mxGeometry width="50" height="50" relative="1" as="geometry">
            <mxPoint x="-149.25" y="824.4" as="sourcePoint" />
            <mxPoint x="-99.25" y="774.4" as="targetPoint" />
          </mxGeometry>
        </mxCell>
        <mxCell id="QMrwEV2rDX-M7GrpwGeN-60" value="库存台账" style="text;html=1;strokeColor=none;fillColor=none;align=center;verticalAlign=middle;whiteSpace=wrap;rounded=0;" vertex="1" parent="1">
          <mxGeometry x="-127.25" y="774.4" width="60" height="30" as="geometry" />
        </mxCell>
        <mxCell id="QMrwEV2rDX-M7GrpwGeN-61" value="" style="endArrow=classic;html=1;rounded=0;entryX=-0.006;entryY=0.617;entryDx=0;entryDy=0;entryPerimeter=0;" edge="1" parent="1" target="QMrwEV2rDX-M7GrpwGeN-55">
          <mxGeometry width="50" height="50" relative="1" as="geometry">
            <mxPoint x="-239" y="710" as="sourcePoint" />
            <mxPoint x="-189" y="660" as="targetPoint" />
          </mxGeometry>
        </mxCell>
        <mxCell id="QMrwEV2rDX-M7GrpwGeN-62" value="" style="endArrow=classic;html=1;rounded=0;entryX=0;entryY=0.5;entryDx=0;entryDy=0;entryPerimeter=0;exitX=1;exitY=0.432;exitDx=0;exitDy=0;exitPerimeter=0;" edge="1" parent="1" source="QMrwEV2rDX-M7GrpwGeN-42" target="QMrwEV2rDX-M7GrpwGeN-58">
          <mxGeometry width="50" height="50" relative="1" as="geometry">
            <mxPoint x="-229" y="730" as="sourcePoint" />
            <mxPoint x="-179" y="680" as="targetPoint" />
          </mxGeometry>
        </mxCell>
        <mxCell id="QMrwEV2rDX-M7GrpwGeN-63" value="D2" style="strokeWidth=2;html=1;shape=mxgraph.flowchart.annotation_1;align=left;pointerEvents=1;fillColor=#f5f5f5;fontColor=#333333;strokeColor=#666666;" vertex="1" parent="1">
          <mxGeometry x="-557" y="857" width="144" height="70" as="geometry" />
        </mxCell>
        <mxCell id="QMrwEV2rDX-M7GrpwGeN-64" value="" style="endArrow=none;html=1;rounded=0;entryX=0.247;entryY=-0.02;entryDx=0;entryDy=0;entryPerimeter=0;exitX=0.247;exitY=1.02;exitDx=0;exitDy=0;exitPerimeter=0;" edge="1" parent="1" source="QMrwEV2rDX-M7GrpwGeN-63" target="QMrwEV2rDX-M7GrpwGeN-63">
          <mxGeometry width="50" height="50" relative="1" as="geometry">
            <mxPoint x="-530" y="915.4" as="sourcePoint" />
            <mxPoint x="-480" y="865.4" as="targetPoint" />
          </mxGeometry>
        </mxCell>
        <mxCell id="QMrwEV2rDX-M7GrpwGeN-65" value="流水账" style="text;html=1;strokeColor=none;fillColor=none;align=center;verticalAlign=middle;whiteSpace=wrap;rounded=0;" vertex="1" parent="1">
          <mxGeometry x="-506" y="877" width="60" height="30" as="geometry" />
        </mxCell>
        <mxCell id="QMrwEV2rDX-M7GrpwGeN-67" value="" style="endArrow=classic;html=1;rounded=0;" edge="1" parent="1">
          <mxGeometry width="50" height="50" relative="1" as="geometry">
            <mxPoint x="-483" y="801" as="sourcePoint" />
            <mxPoint x="-483" y="857" as="targetPoint" />
          </mxGeometry>
        </mxCell>
      </root>
    </mxGraphModel>
  </diagram>
</mxfile>
